<?xml version="1.0" standalone="no"?>
<!DOCTYPE svg PUBLIC "-//W3C//DTD SVG 20010904//EN"
 "http://www.w3.org/TR/2001/REC-SVG-20010904/DTD/svg10.dtd">
<svg version="1.0" xmlns="http://www.w3.org/2000/svg"
 width="700.000000pt" height="700.000000pt" viewBox="0 0 700.000000 700.000000"
 preserveAspectRatio="xMidYMid meet">
<metadata>
Created by potrace 1.11, written by Peter Selinger 2001-2013
</metadata>
<g transform="translate(0.000000,700.000000) scale(0.100000,-0.100000)"
fill="#000000" stroke="none">
<path d="M3298 6996 c-1 -2 -42 -6 -89 -10 -112 -7 -329 -38 -399 -56 -19 -5
-51 -12 -70 -15 -118 -20 -328 -85 -524 -162 -829 -325 -1524 -980 -1886
-1777 -31 -68 -52 -101 -67 -107 -19 -7 -21 -13 -14 -31 6 -17 1 -43 -20 -98
-26 -66 -93 -271 -104 -318 -3 -9 -14 -55 -26 -102 -24 -100 -26 -107 -40
-185 -15 -88 -18 -103 -25 -154 -3 -25 -8 -57 -10 -71 -25 -160 -25 -680 0
-817 2 -10 7 -43 10 -74 4 -31 9 -67 11 -80 3 -13 7 -37 9 -54 11 -75 62 -283
103 -415 81 -263 203 -538 336 -759 31 -52 57 -97 57 -102 0 -4 3 -9 8 -11 4
-2 28 -34 53 -73 148 -225 368 -470 619 -690 299 -261 724 -503 1134 -644 211
-73 480 -136 661 -156 28 -3 55 -8 62 -10 78 -26 664 -26 843 1 364 54 647
130 930 250 119 50 331 155 400 199 22 14 42 25 45 25 3 0 11 5 18 10 7 6 66
46 132 90 237 157 489 378 668 585 33 39 63 72 67 75 16 11 178 232 236 320
228 348 413 785 490 1155 16 75 54 300 60 350 4 33 9 76 11 95 8 70 10 517 3
595 -15 158 -21 210 -25 225 -2 8 -7 35 -10 60 -18 136 -78 378 -136 550 -204
608 -582 1164 -1064 1565 -33 28 -68 58 -79 67 -10 9 -69 53 -130 97 -357 256
-737 435 -1161 546 -180 48 -261 62 -555 101 -47 6 -526 15 -532 10z m454
-240 c173 -14 352 -43 513 -82 33 -8 68 -17 79 -19 39 -9 253 -78 301 -97 28
-11 59 -23 70 -28 16 -6 0 -17 -85 -60 l-105 -53 -240 -1 c-212 -1 -243 -3
-266 -19 -19 -12 -65 -94 -152 -270 -69 -139 -128 -260 -131 -271 -12 -35 12
-93 47 -115 34 -21 387 -141 415 -141 9 0 107 23 217 51 110 28 211 52 224 55
14 3 95 -18 190 -50 118 -39 246 -71 446 -111 154 -31 295 -58 313 -59 34 -3
132 39 132 56 0 4 4 8 9 8 5 0 52 29 104 65 l95 65 55 -63 c69 -79 211 -268
259 -346 l37 -60 -290 -96 c-187 -63 -298 -95 -313 -91 -13 3 -41 8 -62 11
-225 34 -522 89 -532 99 -7 7 -59 82 -115 167 -71 106 -112 158 -132 168 -24
12 -100 15 -392 15 -200 1 -376 -2 -391 -6 -41 -11 -419 -390 -430 -432 -5
-17 -5 -49 -1 -71 4 -22 10 -65 14 -95 3 -30 8 -62 10 -70 2 -8 7 -37 10 -64
3 -27 12 -94 20 -150 8 -55 17 -114 19 -131 3 -16 8 -52 12 -80 3 -27 8 -58
10 -69 2 -10 6 -44 10 -75 8 -72 26 -115 56 -134 12 -9 210 -95 438 -193 275
-117 427 -177 450 -177 19 0 82 13 140 28 58 15 112 28 120 30 8 2 52 13 98
24 l83 22 128 -85 127 -84 1 -218 0 -219 233 -465 233 -465 1 -235 c1 -200 3
-240 17 -260 9 -14 72 -80 139 -148 l122 -122 -58 -73 c-94 -116 -102 -125
-249 -273 -274 -276 -539 -466 -880 -630 -224 -107 -551 -223 -710 -250 -16
-2 -37 -7 -45 -9 -28 -8 -189 -35 -239 -41 -19 -2 -48 -5 -65 -8 -120 -19
-417 -25 -591 -13 -796 56 -1526 391 -2085 955 -165 167 -181 185 -271 302
-444 579 -680 1263 -683 1980 0 134 9 333 19 391 2 13 9 59 15 102 23 156 44
257 83 397 l24 85 37 -114 c21 -63 46 -138 57 -167 l20 -52 305 -203 304 -202
-80 -82 c-44 -46 -81 -89 -81 -96 -1 -8 -2 -104 -4 -214 l-1 -200 127 -255
c69 -140 136 -263 147 -273 18 -17 55 -29 132 -43 58 -12 367 -74 388 -79 l22
-5 0 -545 0 -545 51 -127 c27 -71 56 -141 63 -158 7 -16 41 -101 76 -188 42
-105 70 -164 87 -177 27 -21 383 -143 426 -145 15 -1 41 7 58 17 53 32 57 56
57 352 0 213 3 271 13 281 25 22 392 297 404 301 6 3 19 19 29 35 16 27 19 56
20 199 l1 169 224 224 c124 124 228 234 232 245 4 11 26 114 49 229 23 114 43
217 46 228 2 11 8 45 14 75 6 30 12 66 15 79 6 30 -16 80 -45 106 -20 18 -40
20 -247 25 l-225 5 -163 270 c-89 148 -174 278 -188 289 -25 18 -46 19 -417
20 l-392 1 -107 215 c-94 189 -111 217 -142 234 -61 33 -99 18 -201 -82 l-88
-86 0 102 c0 55 -4 111 -9 124 -5 13 -57 71 -115 130 l-106 107 -2 95 c-1 53
1 99 5 103 8 7 12 8 87 18 40 5 329 47 420 61 19 3 53 7 75 10 151 20 144 17
392 165 131 78 254 151 273 164 19 12 54 33 77 48 36 23 65 66 212 310 l170
284 162 53 c89 29 172 63 186 74 17 15 40 69 78 181 81 236 85 255 68 296 -8
19 -24 42 -37 51 -14 10 -94 29 -202 48 -228 39 -221 38 -273 45 -23 3 -46 7
-50 9 -3 2 -31 7 -61 11 -102 12 -145 26 -197 62 -29 19 -53 37 -53 38 0 9
284 85 395 104 33 6 69 13 80 15 12 2 45 7 75 11 30 3 69 8 85 10 17 3 77 7
135 11 58 4 106 7 107 8 6 5 305 -2 375 -8z m-1371 -356 c84 -55 161 -100 173
-101 21 -1 28 -2 96 -14 19 -4 44 -9 55 -10 208 -34 401 -68 404 -70 1 -2 -9
-40 -23 -83 l-27 -80 -146 -48 c-80 -27 -158 -57 -174 -66 -18 -11 -85 -112
-200 -306 l-174 -288 -270 -162 c-191 -114 -282 -163 -310 -166 -66 -9 -128
-17 -210 -30 -47 -7 -89 -13 -250 -36 -82 -11 -161 -23 -175 -25 -14 -2 -47
-7 -75 -10 -63 -8 -93 -22 -119 -58 -19 -26 -20 -42 -21 -218 -1 -105 1 -204
3 -221 3 -21 37 -62 118 -145 l113 -116 0 -88 c0 -49 -3 -90 -7 -93 -5 -3
-115 66 -244 152 l-236 157 -87 262 c-61 185 -85 268 -80 285 4 13 40 86 79
163 271 527 678 971 1179 1285 114 72 418 230 442 230 8 0 83 -45 166 -100z
m2722 -56 c132 -75 303 -192 432 -296 140 -113 232 -195 225 -201 -3 -2 -45
-31 -95 -64 l-90 -59 -190 38 c-239 48 -270 54 -315 62 -8 1 -101 31 -206 66
l-192 63 -234 -57 -235 -57 -84 26 c-46 15 -88 31 -92 35 -13 12 123 280 142
281 9 0 106 2 216 3 l200 1 200 102 c110 56 208 102 218 102 10 1 55 -20 100
-45z m-277 -1253 c77 -116 115 -164 138 -175 25 -12 182 -41 441 -82 17 -3 37
-7 45 -9 8 -2 38 -7 65 -11 28 -3 77 -11 110 -18 33 -6 74 -11 90 -11 17 1
174 50 351 108 176 59 323 107 327 107 19 0 156 -318 212 -491 37 -115 99
-360 110 -434 3 -23 8 -52 10 -65 3 -14 7 -45 10 -70 3 -25 7 -61 10 -80 23
-177 24 -576 0 -721 -2 -13 -6 -46 -10 -74 -11 -92 -23 -153 -60 -327 -41
-188 -160 -511 -263 -713 -45 -88 -160 -285 -167 -285 -3 0 -69 66 -139 138
l-39 41 -2 228 -2 228 -232 459 -231 459 0 236 c0 213 -2 239 -19 264 -22 34
-377 273 -423 285 -25 6 -80 -4 -256 -49 l-224 -57 -357 153 c-196 85 -359
160 -363 167 -3 7 -12 51 -18 98 -7 47 -14 96 -16 110 -2 14 -6 45 -9 69 -3
23 -7 55 -9 70 -6 33 -17 108 -21 141 -2 14 -6 43 -9 65 -3 22 -8 60 -11 85
l-6 46 137 137 137 137 294 0 293 0 106 -159z m-3134 -1384 c66 -132 93 -176
116 -189 27 -16 67 -18 420 -18 l390 0 163 -272 c90 -149 176 -281 190 -291
24 -17 46 -19 207 -20 123 0 179 -4 177 -11 -2 -6 -20 -98 -41 -203 l-36 -193
-229 -228 c-125 -125 -233 -240 -238 -256 -6 -15 -11 -96 -11 -181 l0 -153
-208 -155 c-114 -86 -219 -168 -232 -182 -25 -27 -25 -27 -27 -243 -1 -119 -2
-224 -2 -234 -1 -14 -8 -14 -67 7 -36 13 -70 27 -74 32 -4 4 -47 107 -94 228
-48 121 -92 229 -99 240 -8 15 -12 176 -12 616 -1 651 1 625 -58 664 -18 12
-173 47 -352 80 -16 3 -70 13 -120 23 l-90 18 -99 195 -98 194 0 140 1 139
213 213 c117 117 215 213 218 213 3 0 44 -78 92 -173z"/>
</g>
</svg>
